<svg width="165" height="48" viewBox="0 0 165 48" fill="none" xmlns="http://www.w3.org/2000/svg">
<path d="M22.2031 27.0391H22.1094C22.1094 27.1016 21.9531 27.2969 21.6406 27.625H21.2891L21.1484 27.6719C20.7422 28.0781 20.4531 28.2812 20.2812 28.2812L19.8125 28.1875H19.7188C19.5156 28.1875 19.3125 28.3125 19.1094 28.5625C18.9062 28.7969 18.6875 28.9141 18.4531 28.9141C18.3594 28.9141 18.1875 28.8672 17.9375 28.7734C17.75 29.0234 17.4609 29.1484 17.0703 29.1484L15.7812 29.8281C15.625 29.8906 15.4922 29.9531 15.3828 30.0156C15.2891 30.0781 15.1406 30.1172 14.9375 30.1328C14.7344 30.1484 14.5156 30.2266 14.2812 30.3672C14.0469 30.4922 13.8594 30.5547 13.7188 30.5547L13.1797 30.3906C12.6641 30.7812 12.1406 31.0078 11.6094 31.0703C11.0938 31.1328 10.7188 31.1953 10.4844 31.2578L9.82812 31.3047L8.82031 31.5625C8.58594 31.6562 8.3125 31.7031 8 31.7031C7.60938 31.7031 7.24219 31.5547 6.89844 31.2578C6.71094 31.3828 6.51562 31.5469 6.3125 31.75L6.17188 31.7969C6.14062 31.7969 6.07812 31.7734 5.98438 31.7266C5.89062 31.6797 5.8125 31.6562 5.75 31.6562C5.71875 31.6562 5.65625 31.6797 5.5625 31.7266C5.48438 31.7734 5.39844 31.7969 5.30469 31.7969C5.19531 31.7969 4.94531 31.6328 4.55469 31.3047C4.44531 31.3984 4.34375 31.4453 4.25 31.4453C3.84375 31.4453 3.52344 31.1641 3.28906 30.6016L2.89062 30.7422C2.82812 30.7422 2.73438 30.6094 2.60938 30.3438C2.48438 30.0625 2.42188 29.8125 2.42188 29.5938C2.42188 29 3.6875 27.8984 6.21875 26.2891C8.75 24.6797 10.3359 23.7812 10.9766 23.5938L11.2109 23.4297C11.3047 23.3359 11.4062 23.2891 11.5156 23.2891C11.5469 23.2891 11.625 23.3203 11.75 23.3828H11.8906C12.0781 23.3828 12.2109 23.2734 12.2891 23.0547C12.3672 22.8359 12.5547 22.7266 12.8516 22.7266L13.0859 22.6797L15.7344 21.2266C15.8594 21.1641 16.2891 21 17.0234 20.7344C17.7578 20.4688 18.2578 20.2656 18.5234 20.125C18.8047 19.9688 19.2344 19.8438 19.8125 19.75L20.0469 19.6094C20.2969 19.5 20.5078 19.4453 20.6797 19.4453C21.7266 19.4453 22.25 19.9609 22.25 20.9922L21.875 21.7422C21.6406 22.2734 21.3203 22.5391 20.9141 22.5391C20.7891 22.5391 20.6953 22.5 20.6328 22.4219C20.5703 22.3281 20.5156 22.2812 20.4688 22.2812L19.2734 22.3281L18.7578 22.1406C18.7422 22.1562 18.5625 22.2188 18.2188 22.3281H17.8438C17.7812 22.3281 17.5703 22.4453 17.2109 22.6797L16.6016 22.9141C15.9297 23.0391 15.0078 23.3672 13.8359 23.8984C12.6641 24.4297 11.9844 24.6797 11.7969 24.6484C11.5 24.7734 11.25 24.9531 11.0469 25.1875C10.8438 25.4062 10.4531 25.6094 9.875 25.7969C7.76562 26.8438 6.71094 27.5781 6.71094 28C6.71094 28.3594 7.67969 28.5391 9.61719 28.5391C10.5234 28.5391 11.0859 28.4531 11.3047 28.2812L13.8125 27.7188L14.0469 27.4609H14.5391C14.7422 27.4609 14.9609 27.375 15.1953 27.2031C15.4297 27.0312 15.7188 26.9453 16.0625 26.9453C16.2812 26.9453 16.4922 26.875 16.6953 26.7344C16.9141 26.5938 17.0938 26.5156 17.2344 26.5C17.375 26.4688 17.4922 26.4219 17.5859 26.3594C17.6953 26.2969 17.9609 26.2188 18.3828 26.125C18.8047 26.0156 19.0703 25.875 19.1797 25.7031L19.4609 25.5625C19.5547 25.5 19.7031 25.4141 19.9062 25.3047H20.1875C20.2188 25.3047 20.3672 25.1953 20.6328 24.9766L21.7344 24.3438H22.0156C22.3281 24.3438 22.6328 24.0781 22.9297 23.5469C23.1172 23.375 23.3594 23.2891 23.6562 23.2891C24.1094 23.0703 24.6172 22.6562 25.1797 22.0469L25.8125 21.625C26.1875 21.2812 26.4766 20.9922 26.6797 20.7578C26.7109 20.7578 26.7266 20.7422 26.7266 20.7109L27.1016 20.7578L27.1484 20.6172C27.1484 20.5859 27.1328 20.5312 27.1016 20.4531V20.3594C27.1016 20.2344 27.1641 20.1406 27.2891 20.0781C27.4141 20.0156 27.4766 19.9531 27.4766 19.8906L27.3359 19.3984C27.3984 19.3359 27.4297 19.2422 27.4297 19.1172C27.4297 18.8047 27.2734 18.5469 26.9609 18.3438L26.9141 18.2031V18.0156C26.7578 17.9531 26.5781 17.9062 26.375 17.875C26.25 17.5312 25.8359 17.2188 25.1328 16.9375C24.4453 16.6562 23.4297 16.3828 22.0859 16.1172L20.0938 15.7188L19.1328 15.8125C18.9766 15.8125 18.7422 15.7812 18.4297 15.7188C18.1328 15.6562 17.9141 15.625 17.7734 15.625C17.6328 15.625 17.4141 15.5703 17.1172 15.4609C16.6953 15.6016 16.4219 15.6719 16.2969 15.6719L15.7344 15.5312L15.0547 15.625C13.7109 15.625 13.0391 15.4297 13.0391 15.0391C13.0391 13.8047 13.7578 12.8906 15.1953 12.2969C15.3828 12.2344 15.5781 12.1406 15.7812 12.0156L17.6562 11.4297C17.8125 11.3984 18.0312 11.3125 18.3125 11.1719C18.6094 11.0312 18.8828 10.9141 19.1328 10.8203L19.4609 10.6328L19.7188 10.5859C19.8438 10.4297 20.1016 10.2734 20.4922 10.1172C20.8984 9.94531 21.5469 9.57031 22.4375 8.99219C23.3281 8.39844 23.8281 8.03125 23.9375 7.89062C24.0312 7.82812 24.1641 7.75781 24.3359 7.67969C24.5234 7.60156 24.6172 7.33594 24.6172 6.88281C24.6172 6.58594 24.4531 6.375 24.125 6.25L23.8438 6.0625C23.8125 6 23.7344 5.95312 23.6094 5.92188C23.5 5.89063 23.375 5.85156 23.2344 5.80469C23.1094 5.74219 22.4062 5.63281 21.125 5.47656L19.7656 5.24219L19.2266 5.33594L18.6641 5.28906L17.6094 5.59375L17.1641 5.28906C17.1641 5.25781 17.1328 5.24219 17.0703 5.24219C17.0078 5.24219 16.9141 5.32031 16.7891 5.47656C16.6641 5.61719 16.5312 5.6875 16.3906 5.6875C16.1406 5.6875 15.8906 5.65625 15.6406 5.59375H15.5469C15.3125 5.59375 15.1953 5.67187 15.1953 5.82812C15.1953 5.92188 15.3594 6.24219 15.6875 6.78906L15.5938 7.21094L15.6406 7.75C15.6406 7.875 15.5234 8.07812 15.2891 8.35938L15.2422 8.66406C15.1484 8.94531 14.9453 9.42187 14.6328 10.0938C14.3359 10.7656 14.1719 11.1797 14.1406 11.3359L13.3203 12.9766L13.1797 13.4453C12.8203 14.3672 12.5625 14.9609 12.4062 15.2266C12.25 15.4922 12.1328 15.7656 12.0547 16.0469C11.9766 16.3281 11.8281 16.6016 11.6094 16.8672L10.6016 19.4453C10.5234 19.5547 10.4062 19.6719 10.25 19.7969C10.0781 20.2188 9.92188 20.6797 9.78125 21.1797C9.78125 21.6328 9.64844 22.0469 9.38281 22.4219L9.28906 22.8672C9.28906 22.9297 9.22656 23.0781 9.10156 23.3125C8.97656 23.5312 8.88281 23.7344 8.82031 23.9219C8.75781 24.1094 8.66406 24.2031 8.53906 24.2031C8.08594 24.2031 7.67969 23.8984 7.32031 23.2891C6.96094 22.6641 6.71094 22.3125 6.57031 22.2344C6.30469 21.9219 6.17188 21.6172 6.17188 21.3203C6.17188 21.0391 6.3125 20.6172 6.59375 20.0547C6.89062 19.4922 7.07812 19.1094 7.15625 18.9062C7.23438 18.7031 7.33594 18.4922 7.46094 18.2734C7.60156 18.0391 7.70312 17.8359 7.76562 17.6641C7.82812 17.4766 7.89062 17.3516 7.95312 17.2891C8.17188 17.0703 8.29688 16.7969 8.32812 16.4688C8.35938 16.125 8.55469 15.8281 8.91406 15.5781C8.88281 15.5 8.86719 15.4141 8.86719 15.3203C8.86719 15.1953 8.96094 15.0391 9.14844 14.8516C9.33594 14.6641 9.45312 14.4844 9.5 14.3125C9.5625 14.125 9.625 13.9688 9.6875 13.8438L9.875 13.75C9.90625 13.625 9.92969 13.4766 9.94531 13.3047C9.96094 13.1172 10.0781 13.0078 10.2969 12.9766C10.375 12.3516 10.5 12.0156 10.6719 11.9688C10.8594 11.9062 11.0703 11.7812 11.3047 11.5938C11.1172 11.4531 11.0234 11.3359 11.0234 11.2422C11.0234 10.8984 11.2031 10.6094 11.5625 10.375C11.5312 10.2969 11.4844 10.2266 11.4219 10.1641C11.375 10.0859 11.3516 10.0312 11.3516 10L11.9141 8.6875C12.0859 8.25 12.3516 7.90625 12.7109 7.65625H12.7578L12.6172 7.02344C12.6172 6.80469 12.8516 6.60937 13.3203 6.4375C13.4922 6.25 13.5625 6.07813 13.5312 5.92188H13.4141L13.0391 5.78125L12.0078 5.96875C11.7266 6.03125 11.3359 6.15625 10.8359 6.34375L10.5547 6.25H10.4375C10.375 6.25 10.25 6.3125 10.0625 6.4375L9.875 6.55469C9.78125 6.50781 9.6875 6.48438 9.59375 6.48438C9.125 6.48438 8.72656 6.53906 8.39844 6.64844C8.08594 6.74219 7.8125 6.77344 7.57812 6.74219C7.48438 6.78906 7.32031 6.85156 7.08594 6.92969H6.85156C6.82031 6.92969 6.74219 6.96875 6.61719 7.04688C6.50781 7.10938 6.25 7.19531 5.84375 7.30469C5.65625 7.24219 5.54688 7.21094 5.51562 7.21094C5.45312 7.21094 5.24219 7.34375 4.88281 7.60938C4.52344 7.85938 4.23438 7.99219 4.01562 8.00781C3.79688 8.02344 3.625 8.07812 3.5 8.17188C3.39062 8.26562 3.24219 8.38281 3.05469 8.52344L2.77344 8.94531C2.71094 9.16406 2.53906 9.35156 2.25781 9.50781C1.99219 9.64844 1.80469 9.77344 1.69531 9.88281C1.58594 9.99219 1.47656 10.0469 1.36719 10.0469C1.17969 10.0469 0.960938 9.91406 0.710938 9.64844C0.476562 9.36719 0.359375 9.13281 0.359375 8.94531C0.359375 8.42969 0.492188 8.03125 0.757812 7.75C1.03906 7.45312 1.3125 7.14844 1.57812 6.83594C2.04688 6.47656 2.70312 6.21094 3.54688 6.03906C4.40625 5.86719 4.91406 5.73438 5.07031 5.64062C5.07031 5.60938 5.08594 5.59375 5.11719 5.59375L5.51562 5.73438C5.60938 5.79688 5.78125 5.69531 6.03125 5.42969C7.46875 4.86719 8.52344 4.58594 9.19531 4.58594H9.28906L9.92188 4.63281L10.4141 4.44531C10.7578 4.32031 11.0156 4.25781 11.1875 4.25781C11.375 4.25781 11.5 4.28906 11.5625 4.35156C11.625 4.39844 11.6875 4.42188 11.75 4.42188C11.8438 4.42188 11.9531 4.3125 12.0781 4.09375C12.375 3.9375 12.7812 3.83594 13.2969 3.78906C13.8281 3.74219 14.2578 3.67188 14.5859 3.57812H14.7266L15.2891 3.625L16.4844 3.41406L18.0781 3.53125L18.8047 3.41406L19.4141 3.46094L20.7734 3.36719L22.9062 3.69531C23.7031 3.80469 24.5234 4.11719 25.3672 4.63281C26.2109 5.13281 26.7578 5.52344 27.0078 5.80469C27.2578 6.07031 27.3828 6.46094 27.3828 6.97656C27.3828 8.10156 26.6094 9.21875 25.0625 10.3281C23.5156 11.4219 22.2891 12.0781 21.3828 12.2969C20.2734 12.7188 19.7188 12.9766 19.7188 13.0703C19.7188 13.1641 20.0234 13.2656 20.6328 13.375C21.2422 13.4688 21.6328 13.5547 21.8047 13.6328C21.9766 13.7109 22.125 13.7656 22.25 13.7969C22.375 13.8281 22.6797 13.9375 23.1641 14.125C23.6484 14.3125 24 14.4219 24.2188 14.4531C26.0938 15.1406 27.1797 15.8359 27.4766 16.5391C27.5234 16.5547 27.6484 16.5859 27.8516 16.6328C28.0547 16.6641 28.25 17.0312 28.4375 17.7344C28.7031 17.7812 28.9141 18.1641 29.0703 18.8828L29.1641 19.1641C29.2578 19.3516 29.3047 19.5156 29.3047 19.6562C29.3047 20.9062 29.1641 21.6094 28.8828 21.7656C28.8203 21.8281 28.7734 21.9688 28.7422 22.1875C28.7109 22.3906 28.4062 22.7969 27.8281 23.4062C27.2656 24 26.8359 24.3125 26.5391 24.3438C26.4609 24.375 26.3281 24.5078 26.1406 24.7422L25.9062 24.9297C25.6562 25.0547 25.4844 25.1641 25.3906 25.2578C25.3125 25.3516 25.2344 25.4062 25.1562 25.4219C25.0781 25.4375 24.9766 25.5547 24.8516 25.7734C24.7266 25.9766 24.5781 26.0781 24.4062 26.0781C24.375 26.0469 24.2969 26.0156 24.1719 25.9844H24.125C23.5 26.6875 22.8594 27.0391 22.2031 27.0391ZM32.9609 22.5859L33.4531 22.1875C33.8281 22.1562 34.0312 21.9609 34.0625 21.6016C34.0938 21.2422 34.3516 20.9297 34.8359 20.6641L35.1172 20.2656C35.3516 20.0312 35.9922 19.7266 37.0391 19.3516C37.3047 19.1953 37.4844 19.0547 37.5781 18.9297C37.6094 18.8984 37.6406 18.8828 37.6719 18.8828L38.0469 18.9766C38.25 18.9766 38.5078 18.9219 38.8203 18.8125C39.1484 18.7031 39.4609 18.6484 39.7578 18.6484L40.7422 18.6016C40.8047 18.6016 40.9297 18.6484 41.1172 18.7422C41.3203 18.8359 41.5625 18.8828 41.8438 18.8828C42.1875 18.8828 42.5 19.0391 42.7812 19.3516C43.0781 19.6641 43.2266 19.9531 43.2266 20.2188C43.2266 20.7031 42.9766 21.1953 42.4766 21.6953C41.9766 22.1953 41.5781 22.4766 41.2812 22.5391C41.0156 22.8047 40.8125 22.9766 40.6719 23.0547C40.5312 23.1172 40.3828 23.2266 40.2266 23.3828C40.0859 23.5234 39.9688 23.5938 39.875 23.5938C39.8125 23.5938 39.7656 23.5781 39.7344 23.5469C39.7031 23.5 39.6562 23.4766 39.5938 23.4766C39.3438 23.4766 39.0703 23.7812 38.7734 24.3906L38.3516 24.3438C38.0859 24.5156 37.9141 24.7031 37.8359 24.9062C37.7578 25.1094 37.5938 25.2109 37.3438 25.2109C36.7656 25.7891 36.375 26.0781 36.1719 26.0781C36.1406 26.0781 36.0312 26.0469 35.8438 25.9844C35.7188 26.1406 35.6562 26.3047 35.6562 26.4766C35.6562 26.6641 35.5312 26.7734 35.2812 26.8047L34.9766 27.0859L34.7422 27.0391L34.2734 27.5312C34.0391 27.5312 33.7969 27.6094 33.5469 27.7656C33.5156 27.9531 33.4688 28.1953 33.4062 28.4922C33.3438 28.7734 33.3125 28.9297 33.3125 28.9609C33.3125 29.4141 33.7266 29.6406 34.5547 29.6406L35.6797 29.4766C35.9766 29.4766 36.25 29.3984 36.5 29.2422C36.7656 29.0859 37.0469 29.0078 37.3438 29.0078C37.4375 29.0078 37.5781 28.9766 37.7656 28.9141L38 29.0078C38.1094 28.7734 38.3125 28.5625 38.6094 28.375C38.9062 28.1875 39.1406 28.0938 39.3125 28.0938L39.5469 27.9531C39.6094 27.7656 39.7031 27.6406 39.8281 27.5781L40.0156 27.4141C40.1406 27.2891 40.2578 27.2266 40.3672 27.2266H40.6953L40.7891 27.1797C40.9766 26.7734 41.2344 26.5391 41.5625 26.4766C41.9062 26.3984 42.1172 26.2812 42.1953 26.125C42.2891 25.9688 42.4453 25.875 42.6641 25.8438C42.8828 25.8125 43.0625 25.7109 43.2031 25.5391C43.3594 25.3516 43.5469 25.1797 43.7656 25.0234C43.9844 24.8672 44.1328 24.75 44.2109 24.6719C44.3047 24.5938 44.3828 24.5547 44.4453 24.5547C44.5391 24.5547 44.5859 24.625 44.5859 24.7656C44.5859 24.9062 44.6172 24.9766 44.6797 24.9766C44.7422 24.9766 44.7734 24.9453 44.7734 24.8828C44.7734 24.8203 44.7578 24.7422 44.7266 24.6484V24.4844C44.7266 24.25 44.8516 24.0938 45.1016 24.0156L46.1562 23.3359C46.1875 23.0078 46.2734 22.8203 46.4141 22.7734C46.5703 22.7109 46.6875 22.6484 46.7656 22.5859C46.8438 22.5078 46.9297 22.4688 47.0234 22.4688C47.2266 22.4688 47.3281 22.5859 47.3281 22.8203L47.2109 23.4297L47.3281 24.0625C47.3281 24.1562 47.25 24.2891 47.0938 24.4609C46.9531 24.6172 46.8438 24.8672 46.7656 25.2109C46.6875 25.5391 46.5859 25.7188 46.4609 25.75H46.3203C46.0391 26.0469 45.8125 26.2266 45.6406 26.2891C45.4844 26.3359 45.3594 26.4297 45.2656 26.5703L44.4688 27.4844C44.3125 27.6406 44.1797 27.7812 44.0703 27.9062C43.9609 28.0312 43.875 28.0938 43.8125 28.0938L43.625 27.9062C43.625 27.875 43.5938 27.8594 43.5312 27.8594C43.375 27.8594 43.2734 27.9531 43.2266 28.1406C43.1953 28.3281 43.1172 28.4922 42.9922 28.6328C42.5234 28.8516 42.2188 29.0547 42.0781 29.2422L41.9375 29.2891H41.5156C41.3125 29.2891 41.1719 29.4453 41.0938 29.7578C41.0156 30.0547 40.7891 30.2266 40.4141 30.2734C40.0547 30.3203 39.7969 30.4141 39.6406 30.5547C39.6094 30.5859 39.5391 30.6172 39.4297 30.6484C39.3203 30.6797 39.1016 30.8047 38.7734 31.0234L36.8047 31.7266C36.6484 31.8047 36.5469 31.8438 36.5 31.8438L35.8438 31.9375C35.75 31.9375 35.6562 31.875 35.5625 31.75C35.4688 31.625 35.4062 31.5625 35.375 31.5625L34.9531 31.7031C34.6406 31.7969 34.3438 31.8438 34.0625 31.8438C33.9062 31.8438 33.7344 31.7891 33.5469 31.6797C33.3594 31.5703 33.2109 31.4922 33.1016 31.4453C32.6484 31.4453 32.3281 31.0938 32.1406 30.3906L31.8594 30.4375C31.7969 30.4375 31.5859 29.8828 31.2266 28.7734C31.1328 28.6484 30.9844 28.5625 30.7812 28.5156C30.5781 28.4531 30.4766 28.2969 30.4766 28.0469C30.4766 27.3438 30.625 26.875 30.9219 26.6406C31.2344 26.3906 31.4062 26.2031 31.4375 26.0781L31.7656 24.8594C31.8281 24.8125 31.9062 24.6562 32 24.3906L32.5391 23.4062C32.6016 23.2969 32.7422 23.0234 32.9609 22.5859ZM37.9062 21.1797L37.625 21.3203C37.5625 21.3516 37.375 21.4922 37.0625 21.7422C36.7656 21.9766 36.4688 22.1719 36.1719 22.3281C35.8906 22.4688 35.5938 22.8516 35.2812 23.4766C34.9844 24.1016 34.8359 24.4609 34.8359 24.5547C34.8359 24.6484 34.8828 24.6953 34.9766 24.6953L35.7734 24.3438C36.0703 24.2031 36.3438 24.0234 36.5938 23.8047C36.8594 23.5859 37.2344 23.3203 37.7188 23.0078L37.9062 22.8203C37.9375 22.7578 38.0781 22.6484 38.3281 22.4922C38.5938 22.3203 38.7891 22.1562 38.9141 22L39.1484 21.9062C39.4141 21.4844 39.6797 21.2266 39.9453 21.1328C40.2266 21.0391 40.3672 20.9453 40.3672 20.8516C40.3672 20.6641 40.2188 20.5703 39.9219 20.5703C39.7969 20.5703 39.6094 20.6484 39.3594 20.8047H38.8203C38.7578 20.8047 38.5859 20.8984 38.3047 21.0859L37.9062 21.1797ZM49.0156 20.9453L49.3438 20.3594C49.4375 20.2188 49.5547 20.0781 49.6953 19.9375C49.8516 19.7812 50.0156 19.3984 50.1875 18.7891C50.3594 18.1641 50.5469 17.7344 50.75 17.5C50.9688 17.2656 51.2812 17.1484 51.6875 17.1484C51.9219 17.1484 52.2266 17.2656 52.6016 17.5C52.9922 17.7188 53.3672 18.3984 53.7266 19.5391C54.1016 20.6797 54.2891 21.4844 54.2891 21.9531C54.2891 22.1406 54.3438 22.3828 54.4531 22.6797C54.5625 22.9609 54.6328 23.1797 54.6641 23.3359C54.5391 23.6016 54.4766 23.75 54.4766 23.7812L54.5234 24.7422L54.2422 25.5156V26.0781C54.0547 26.3906 53.9609 26.5859 53.9609 26.6641C53.9609 26.7578 53.9922 26.8516 54.0547 26.9453C54.7891 26.6328 55.2344 26.3828 55.3906 26.1953C55.5469 25.9922 55.6953 25.8672 55.8359 25.8203C55.9922 25.7734 56.2422 25.5703 56.5859 25.2109L57.0312 24.9766C57.1875 24.7891 57.3203 24.625 57.4297 24.4844C57.5391 24.3281 57.6641 24.2188 57.8047 24.1562C57.9609 24.0938 58.1406 23.9844 58.3438 23.8281C58.5469 23.6719 58.8438 23.4922 59.2344 23.2891L59.4688 23.0078C59.7031 22.7422 59.9766 22.5312 60.2891 22.375C60.6172 22.2188 60.7969 22.1406 60.8281 22.1406C60.9375 22.1406 61.0469 22.2891 61.1562 22.5859C61.2812 22.8672 61.3438 23.1484 61.3438 23.4297C61.3438 23.6953 61.1875 23.9609 60.875 24.2266C60.5781 24.4766 60.375 24.6641 60.2656 24.7891C60.1562 24.9141 59.9062 25.0234 59.5156 25.1172C59.4844 25.1328 59.2266 25.4531 58.7422 26.0781L58.2734 26.3594L58.0391 26.6641C58.0078 26.7266 57.7969 26.7891 57.4062 26.8516C57.3906 26.8516 57.3516 26.9297 57.2891 27.0859C57.2422 27.2422 57.0781 27.3516 56.7969 27.4141C56.2344 27.9297 55.9453 28.2188 55.9297 28.2812L55.4375 28.375C55.3438 28.6719 55.2656 28.8516 55.2031 28.9141C54.8281 29.0078 54.6172 29.1641 54.5703 29.3828C54.5234 29.4141 54.4453 29.4453 54.3359 29.4766L54.2422 29.5469C53.8828 29.8281 53.5312 30 53.1875 30.0625L52.6484 30.2031L52.4609 30.4844C52.4609 30.5625 52.2656 30.6641 51.875 30.7891C51.5 30.9141 51.2188 31.0703 51.0312 31.2578L50.6328 31.5625C50.1484 31.75 49.8438 31.9219 49.7188 32.0781H49.3906C49.1719 32.0781 48.8281 32.2422 48.3594 32.5703C47.8906 32.8828 47.5156 33.0391 47.2344 33.0391C46.3281 33.0391 45.7031 32.9297 45.3594 32.7109C45.0312 32.4766 44.7578 32.1953 44.5391 31.8672C44.3203 31.5234 44.125 31.25 43.9531 31.0469C43.7656 30.8438 43.6719 30.6797 43.6719 30.5547C43.6719 30.4453 43.75 30.3359 43.9062 30.2266C44.0469 30.1172 44.2031 29.8984 44.375 29.5703C44.5469 29.2266 44.9844 29.0078 45.6875 28.9141C45.7188 28.9141 45.8281 28.8672 46.0156 28.7734C46.2188 28.6797 46.3828 28.6328 46.5078 28.6328C46.6641 28.6328 46.8594 28.7734 47.0938 29.0547C47.0938 29.0859 47.125 29.1016 47.1875 29.1016L47.5625 29.0547C47.7344 29.1797 47.8516 29.2422 47.9141 29.2422C48.2891 29.2422 48.6875 29.0547 49.1094 28.6797L49.2031 28.6328H49.3906C49.4375 28.6328 49.5156 28.5 49.625 28.2344L50.0234 27.4141L50.8438 26.3594V26.125C50.8438 26.0781 50.8906 25.9375 50.9844 25.7031V25.3516C50.9844 25.2109 51.0781 25.125 51.2656 25.0938C51.4531 25.0469 51.5469 24.9453 51.5469 24.7891L51.5 24.6016C51.375 24.4297 51.3125 24.2969 51.3125 24.2031L51.5469 23.7344L51.5 23.2422L51.5938 23.0547C51.5312 22.8359 51.5 22.7109 51.5 22.6797L51.5938 22.0938C51.5938 22.0781 51.5469 21.9297 51.4531 21.6484C51.375 21.3672 51.3125 21.2266 51.2656 21.2266C51.1719 21.2266 50.875 21.4688 50.375 21.9531C49.875 22.4375 49.5781 22.7812 49.4844 22.9844C49.3906 23.1875 49.1875 23.375 48.875 23.5469C48.5781 23.7031 48.375 23.8828 48.2656 24.0859C48.1562 24.2891 48.0234 24.4062 47.8672 24.4375L46.2969 25.7031L44.5859 26.9688C44.4609 27.1094 44.3828 27.1797 44.3516 27.1797C43.7734 27.1797 43.4844 26.8594 43.4844 26.2188C43.4844 26.0156 43.6016 25.6484 43.8359 25.1172C43.9453 25.0547 44.0312 25.0078 44.0938 24.9766C44.1406 24.9453 44.1641 24.9219 44.1641 24.9062C44.1641 24.8906 44.1484 24.8828 44.1172 24.8828L44.2578 24.9766H44.3047C44.8828 24.5859 45.2578 24.3594 45.4297 24.2969C45.6016 24.2344 45.7578 24.0625 45.8984 23.7812L46.8828 23.0781C47.1328 22.8906 47.5156 22.5469 48.0312 22.0469C48.5469 21.5469 48.875 21.1797 49.0156 20.9453ZM64.9766 10.9609L65.3047 10.8672L65.5391 10.6328H65.5859L65.7969 10.7266H65.8438C66.2188 10.7266 66.5469 10.6562 66.8281 10.5156C67.125 10.3594 67.3672 10.25 67.5547 10.1875C67.7578 10.125 67.8828 10.0781 67.9297 10.0469C67.9766 10.0156 68.0156 10 68.0469 10L68.4219 10.0469C68.5469 10.0469 68.7109 9.82813 68.9141 9.39062C69.1328 8.9375 69.375 8.60938 69.6406 8.40625C69.9062 8.20312 70.1719 7.82031 70.4375 7.25781C70.5 7.17969 70.5703 7.0625 70.6484 6.90625C70.7266 6.73438 70.7891 6.64844 70.8359 6.64844C71.0703 6.64844 71.2578 6.5 71.3984 6.20312C71.8672 5.65625 72.25 5.38281 72.5469 5.38281C72.9375 5.38281 73.2109 5.75781 73.3672 6.50781L73.6016 7.39844C73.6016 7.41406 73.5625 7.53125 73.4844 7.75C73.4062 7.95313 73.3672 8.16406 73.3672 8.38281C73.3828 8.58594 73.375 8.72656 73.3438 8.80469C73.3281 8.86719 73.3203 8.94531 73.3203 9.03906C73.3203 9.16406 73.4531 9.22656 73.7188 9.22656C73.8125 9.22656 73.9844 9.16406 74.2344 9.03906L74.375 8.99219C74.5312 9.08594 74.6641 9.13281 74.7734 9.13281C74.8047 9.13281 75.0234 9.05469 75.4297 8.89844C75.8516 8.74219 76.1172 8.65625 76.2266 8.64062C76.3359 8.625 76.5234 8.5625 76.7891 8.45312H77.0703L77.2578 8.52344C77.3203 8.52344 77.4453 8.46094 77.6328 8.33594C77.8359 8.19531 78.2109 8.10937 78.7578 8.07812L79.0859 7.9375H79.1797C79.6953 7.9375 79.9531 8.16406 79.9531 8.61719C79.9531 8.71094 79.875 8.875 79.7188 9.10938C79.5781 9.34375 79.4609 9.60937 79.3672 9.90625L78.2891 11.2656C77.9297 11.7344 77.5703 11.9688 77.2109 11.9688C77.1484 11.9688 76.9531 11.7578 76.625 11.3359C76.625 11.3047 76.5938 11.2891 76.5312 11.2891C76.375 11.2891 76.2109 11.3203 76.0391 11.3828C75.8672 11.4453 75.7266 11.4766 75.6172 11.4766C75.5703 11.4766 75.1562 11.5938 74.375 11.8281L73.8125 11.9219C73.75 11.9219 73.6016 11.9531 73.3672 12.0156L72.1719 12.25C71.7656 12.4531 71.4453 12.8359 71.2109 13.3984C71.2109 13.4297 71.1328 13.5 70.9766 13.6094L69.9219 15.5312C69.5781 15.625 69.3516 15.8281 69.2422 16.1406L69.1484 16.2812C68.9766 16.3125 68.8203 16.4141 68.6797 16.5859C68.5391 16.7422 68.4062 16.8672 68.2812 16.9609L67.8594 17.5938C67.6875 17.8125 67.5156 18.0547 67.3438 18.3203C67.1719 18.5703 67.0469 18.8438 66.9688 19.1406C66.8906 19.4219 66.8281 19.5859 66.7812 19.6328C66.7344 19.6797 66.7109 19.7656 66.7109 19.8906L66.6406 20.0781C66.4531 20.2656 66.3594 20.4766 66.3594 20.7109L66.4531 21.0859C66.2344 21.8359 66.125 22.2344 66.125 22.2812C66.125 22.3125 66.1406 22.3984 66.1719 22.5391V22.6797C66.1719 23.0234 66.0469 23.4531 65.7969 23.9688L65.8438 24.3438L65.7031 25.3984C65.7031 25.5391 65.75 25.7969 65.8438 26.1719C65.7812 26.2344 65.75 26.2812 65.75 26.3125C65.75 26.75 65.9766 27.2344 66.4297 27.7656C66.8984 28.2812 67.1328 29.0938 67.1328 30.2031C67.1328 30.2969 67.1094 30.4375 67.0625 30.625C67.0156 30.7969 66.9844 30.9922 66.9688 31.2109C66.9531 31.4141 66.8281 31.6172 66.5938 31.8203C66.375 32.0234 66.1875 32.125 66.0312 32.125C65.2031 32.125 64.5859 31.5234 64.1797 30.3203C63.7734 29.1172 63.5703 28.3438 63.5703 28L63.6172 27.0859L63.4766 26.6172L63.6172 24.5547L63.5234 24.0625L64.0625 22.0469V21.3203C64.0625 21.2891 64.1719 21.1641 64.3906 20.9453C64.3906 20.9141 64.3594 20.8984 64.2969 20.8984C64.2031 20.8984 64.0781 20.9922 63.9219 21.1797C63.7656 21.3672 63.5703 21.5469 63.3359 21.7188L63.1484 22.0469C63.1172 22.0156 63.0547 21.9844 62.9609 21.9531C62.8828 21.9844 62.625 22.3516 62.1875 23.0547C61.8594 23.1016 61.6016 23.2891 61.4141 23.6172C61.2266 23.9453 60.9688 24.1094 60.6406 24.1094L60.5469 24.1562C60.4844 24.6094 60.2656 24.8359 59.8906 24.8359L59.7969 24.8828C59.5625 25.4141 59.3203 25.6719 59.0703 25.6562C58.9141 26.125 58.5312 26.4453 57.9219 26.6172C57.8281 26.8047 57.6953 26.9453 57.5234 27.0391C57.3359 27.1328 57.2031 27.2188 57.125 27.2969C57.0469 27.375 56.9766 27.4141 56.9141 27.4141C56.7109 27.4141 56.6094 27.1953 56.6094 26.7578C56.6094 26.6328 56.6641 26.5 56.7734 26.3594C56.8672 26.2031 56.9141 26.0938 56.9141 26.0312C56.9141 26 56.8359 25.9062 56.6797 25.75C56.6797 25.2656 56.8047 24.9609 57.0547 24.8359C57.3047 24.7109 57.4922 24.5312 57.6172 24.2969C57.6953 24.1094 57.8516 23.9766 58.0859 23.8984C58.3203 23.8203 58.4375 23.7188 58.4375 23.5938C58.4375 23.4844 58.6406 23.2656 59.0469 22.9375C59.4531 22.6094 59.75 22.3281 59.9375 22.0938C60.125 21.8438 60.2812 21.7188 60.4062 21.7188L60.5 21.625C60.5312 21.2344 60.6797 21.0391 60.9453 21.0391L61.1797 20.8984L61.2266 20.7109L61.3672 20.6172H61.5547L61.6719 20.5234C61.7031 20.1328 61.8828 19.8281 62.2109 19.6094C62.5547 19.3906 63.1719 18.7812 64.0625 17.7812C64.9531 16.7656 65.4531 16.1172 65.5625 15.8359C65.6719 15.5547 65.8672 15.1797 66.1484 14.7109C66.4453 14.2266 66.6094 13.7734 66.6406 13.3516C66.6094 13.2891 66.5625 13.2266 66.5 13.1641L65.4922 13.6562C65.4922 13.6094 65.3359 13.5391 65.0234 13.4453C64.7891 13.5859 64.6172 13.7266 64.5078 13.8672C64.3984 14.0078 64.3125 14.0781 64.25 14.0781L63.9219 14.0312L62.8906 14.1484C61.9688 14.2266 61.2734 14.4141 60.8047 14.7109L59.8438 14.9922H59.6328C59.5078 14.9922 59.3203 15.0703 59.0703 15.2266L58.5312 15.1797C58.0312 15.4453 57.6641 15.5781 57.4297 15.5781C57.3984 15.5781 57.3047 15.5625 57.1484 15.5312L54.7578 16.1875C54.5703 16.25 54.1484 16.5703 53.4922 17.1484L53.3047 17.1953C53.1484 17.1953 52.9688 17.0234 52.7656 16.6797C52.5469 16.3203 52.4375 16 52.4375 15.7188C52.4375 14.1719 53.7656 13.2734 56.4219 13.0234L57.3828 12.6484H57.4297L57.6875 12.7422H57.7812C57.875 12.7422 58.0234 12.6875 58.2266 12.5781C58.4297 12.4531 58.8828 12.3047 59.5859 12.1328L60.5469 11.875L60.8516 11.9219C61.0078 11.9219 61.1797 11.8594 61.3672 11.7344C61.5703 11.6094 61.8672 11.5234 62.2578 11.4766C62.6641 11.4141 62.9453 11.3516 63.1016 11.2891L63.4766 11.1953C63.5391 11.1953 63.6641 11.1406 63.8516 11.0312C64.0547 10.9219 64.3125 10.8672 64.625 10.8672C64.6719 10.8672 64.7891 10.8984 64.9766 10.9609ZM81.8281 5.33594L82.2266 5.00781L82.6953 5.05469C82.9609 5.05469 83.1875 4.98438 83.375 4.84375C83.5625 4.70312 83.7109 4.625 83.8203 4.60938C83.9453 4.59375 84.0859 4.51562 84.2422 4.375C84.4141 4.23438 84.6562 4.14062 84.9688 4.09375C85.2812 4.03125 85.5078 3.92969 85.6484 3.78906C85.7891 3.64844 85.9453 3.5625 86.1172 3.53125C86.3047 3.48438 86.5156 3.41406 86.75 3.32031L88.8828 2.66406C88.9141 2.66406 89 2.69531 89.1406 2.75781H89.2344C89.4219 2.75781 89.6016 2.6875 89.7734 2.54688C89.9609 2.39062 90.1797 2.3125 90.4297 2.3125C90.5859 2.3125 90.8906 2.21875 91.3438 2.03125L91.4844 2.17188C91.7344 1.89062 91.9453 1.75 92.1172 1.75H92.2578C92.2891 1.75 92.4297 1.78125 92.6797 1.84375C93.0703 1.71875 93.3906 1.65625 93.6406 1.65625L94.1797 1.60938C94.2109 1.60938 94.2578 1.625 94.3203 1.65625C94.4453 1.51562 94.6172 1.42969 94.8359 1.39844H95.0938L96.0547 1.16406L96.3359 1.25781C96.5234 1.10156 96.8125 1.02344 97.2031 1.02344H97.4375L97.6719 1.07031C97.7031 1.07031 97.8438 1.02344 98.0938 0.929688C98.3594 0.835938 98.9922 0.789062 99.9922 0.789062L100.602 0.882812C100.992 0.726562 101.203 0.648438 101.234 0.648438L101.891 0.789062L102.148 0.695312H102.242C102.273 0.695312 102.352 0.726562 102.477 0.789062H102.523L104.211 0.554688C104.242 0.554688 104.305 0.570313 104.398 0.601562C104.523 0.492187 104.617 0.4375 104.68 0.4375L105.125 0.554688C105.25 0.554688 105.469 0.46875 105.781 0.296875L105.922 0.4375L107.516 0.25L108.102 0.296875L108.617 0.203125C109.133 0.203125 109.516 0.34375 109.766 0.625C110.031 0.890625 110.164 1.16406 110.164 1.44531L110.258 2.17188L110.117 2.57031L110.07 3.03906C109.992 3.22656 109.875 3.35156 109.719 3.41406C109.719 3.44531 109.648 3.48438 109.508 3.53125C109.367 3.5625 109.227 3.625 109.086 3.71875C108.945 3.8125 108.484 3.85938 107.703 3.85938C107.312 3.85938 107.062 3.74219 106.953 3.50781C106.844 3.25781 106.727 3.11719 106.602 3.08594L105.594 2.66406C105.562 2.63281 105.469 2.61719 105.312 2.61719H105.125L104.164 2.71094C104.133 2.71094 104.047 2.69531 103.906 2.66406C103.703 2.75781 103.594 2.80469 103.578 2.80469L101.844 2.71094L101.141 2.75781L100.648 2.66406C100.586 2.66406 100.477 2.6875 100.32 2.73438C100.164 2.78125 99.8359 2.82031 99.3359 2.85156C98.8359 2.88281 98.5859 3.03906 98.5859 3.32031C98.5859 3.49219 98.6484 3.67969 98.7734 3.88281C98.9141 4.08594 98.9844 4.25 98.9844 4.375C98.75 4.70312 98.6328 4.91406 98.6328 5.00781C98.5703 5.05469 98.4609 5.15625 98.3047 5.3125C98.1484 5.46875 97.8594 5.71875 97.4375 6.0625C97.0156 6.39062 96.7266 6.69531 96.5703 6.97656C96.4141 7.25781 96.2266 7.39844 96.0078 7.39844C95.7266 7.66406 95.5312 7.90625 95.4219 8.125L95.2344 8.3125C95.2031 8.34375 95.1875 8.41406 95.1875 8.52344C95.1875 8.61719 95.1406 8.71094 95.0469 8.80469L94.8359 9.36719C94.7266 9.41406 94.4062 9.82031 93.875 10.5859L93.5938 10.7266L93.3125 11.0547H92.9844C92.8438 11.0547 92.7734 11.1484 92.7734 11.3359L92.8672 12.0156C92.6328 12.2188 92.4453 12.4922 92.3047 12.8359L92.0234 13.3047C91.6953 13.6328 91.5312 13.8125 91.5312 13.8438C91.5312 13.9219 91.375 14.2578 91.0625 14.8516L91.0156 15.0859C91.0156 15.3516 90.4688 16.1172 89.375 17.3828C89.2188 17.6797 89.125 18.1328 89.0938 18.7422C88.625 19.6641 88.3047 20.1094 88.1328 20.0781C88.1016 20.6719 88 21.1562 87.8281 21.5312C87.6719 21.9062 87.4609 22.4609 87.1953 23.1953C86.9453 23.9141 86.6797 24.4297 86.3984 24.7422L86.3047 24.9297C86.2422 25.0547 86.1641 25.1797 86.0703 25.3047C86.0391 25.7266 85.8906 26.3984 85.625 27.3203L85.4844 28.3281L85.0156 29.6406C84.9688 29.7344 84.9453 29.8281 84.9453 29.9219C84.9453 29.9844 84.9922 30.1094 85.0859 30.2969C85.1953 30.4688 85.25 30.6328 85.25 30.7891C85.25 31.0078 85.2109 31.1875 85.1328 31.3281C85.0547 31.4531 85.0156 31.625 85.0156 31.8438C85.0156 32.3281 84.7578 32.6484 84.2422 32.8047H84.0547L83.5625 32.8516C82.9062 32.8516 82.3125 32.5391 81.7812 31.9141C81.25 31.2891 80.9844 30.4297 80.9844 29.3359C80.9844 29.2734 81.0312 29.0391 81.125 28.6328C81.2188 28.2109 81.2734 27.9375 81.2891 27.8125C81.3047 27.6875 81.3438 27.5625 81.4062 27.4375C81.4688 27.2969 81.5 27.1016 81.5 26.8516C81.5 26.0859 81.6875 25.4219 82.0625 24.8594C82.4531 24.2969 82.7109 23.8906 82.8359 23.6406C82.8672 23.5312 82.9219 23.4609 83 23.4297C82.9531 23.3047 82.9297 23.1484 82.9297 22.9609C82.9297 22.5078 83.125 22.1406 83.5156 21.8594C83.5469 21.7344 83.6016 21.5938 83.6797 21.4375C83.7578 21.2656 83.9219 20.8672 84.1719 20.2422C84.4219 19.6016 84.75 19.2266 85.1562 19.1172C85.1406 19.0859 85.2344 18.9609 85.4375 18.7422L85.3438 17.9219C85.3438 17.7969 85.4844 17.5859 85.7656 17.2891L86.1641 16.6328C86.2266 16.3672 86.4297 16.125 86.7734 15.9062C86.8672 15.75 86.9688 15.6562 87.0781 15.625C87.0938 15.5625 87.1562 15.3672 87.2656 15.0391C87.3906 14.7109 87.6406 14.3047 88.0156 13.8203C88.4062 13.3203 88.7734 12.8047 89.1172 12.2734C89.4766 11.7422 89.7969 11.4688 90.0781 11.4531C90.375 11.4375 90.5391 11.2734 90.5703 10.9609L90.7109 10.0938C91.1641 9.70312 91.4375 9.42969 91.5312 9.27344L91.8594 8.89844C91.9219 8.67969 92 8.53906 92.0938 8.47656C92.2031 8.39844 92.3359 8.25 92.4922 8.03125C92.6484 7.8125 92.8438 7.61719 93.0781 7.44531C93.2812 6.80469 93.7422 6.25 94.4609 5.78125L94.8359 5.38281C95.1016 5.00781 95.3203 4.75781 95.4922 4.63281C95.6641 4.49219 95.7891 4.3125 95.8672 4.09375C95.9609 3.875 96.1328 3.71094 96.3828 3.60156C96.6328 3.49219 96.7578 3.36719 96.7578 3.22656C96.7578 3.16406 96.6953 3.13281 96.5703 3.13281C96.4453 3.13281 96.2344 3.17969 95.9375 3.27344H95.75L95.3281 3.36719H95.1875L94.7891 3.27344C94.5078 3.36719 94.2891 3.41406 94.1328 3.41406C94.1016 3.44531 94 3.51562 93.8281 3.625H93.3125L93.0312 3.90625L92.8203 3.95312L92.2109 3.85938C92.0234 3.85938 91.7969 3.95312 91.5312 4.14062C91.5312 4.17187 91.2734 4.22656 90.7578 4.30469C90.2578 4.38281 89.7812 4.53125 89.3281 4.75C88.875 4.95313 88.6016 5.05469 88.5078 5.05469L88.0859 4.96094H88.0391C87.8359 4.96094 87.6484 5.0625 87.4766 5.26562C87.3047 5.46875 87.0547 5.59375 86.7266 5.64062H86.4453C86.2109 5.64062 85.8906 5.73438 85.4844 5.92188C85.0938 6.10938 84.8828 6.20312 84.8516 6.20312L84.4297 6.15625C84.2422 6.28125 84.0781 6.36719 83.9375 6.41406C83.8125 6.46094 83.6875 6.53906 83.5625 6.64844C83.4375 6.74219 83.3125 6.8125 83.1875 6.85938C83.0625 6.90625 82.9141 6.99219 82.7422 7.11719C82.5859 7.24219 82.4609 7.30469 82.3672 7.30469H82.2734L81.9922 7.25781C81.8828 7.25781 81.7422 7.35937 81.5703 7.5625C81.3984 7.75 81.2344 7.86719 81.0781 7.91406C80.9375 7.96094 80.7969 8.03906 80.6562 8.14844C80.5312 8.24219 80.3984 8.29687 80.2578 8.3125C80.1797 8.39062 80.0703 8.5625 79.9297 8.82812C79.7891 9.09375 79.6094 9.32812 79.3906 9.53125C79.1719 9.71875 79.0234 9.86719 78.9453 9.97656C78.8828 10.0859 78.8203 10.1406 78.7578 10.1406C77.9922 10.1406 77.6094 9.66406 77.6094 8.71094L78.0781 7.70312C78.4062 6.90625 78.9062 6.42187 79.5781 6.25C79.75 6.25 80.1953 6.07813 80.9141 5.73438L81.8281 5.33594ZM99.5469 20.7578L99.8984 20.6641L100.039 20.3594C100.805 19.9062 101.352 19.4766 101.68 19.0703C101.711 19.0078 101.781 18.9453 101.891 18.8828C102 18.8203 102.117 18.7109 102.242 18.5547C102.82 17.9766 103.508 17.6875 104.305 17.6875C105.242 17.6875 105.742 18.2578 105.805 19.3984L105.945 19.75C106.07 19.9688 106.242 20.4141 106.461 21.0859C106.695 21.7578 106.812 22.1719 106.812 22.3281C106.812 22.75 106.68 23.1719 106.414 23.5938C106.195 23.7031 105.672 24.2891 104.844 25.3516L104.609 25.5156C104.484 25.7969 104.32 26.0781 104.117 26.3594C103.805 26.4688 103.648 26.5859 103.648 26.7109V27.1328C103.648 27.1641 103.609 27.2266 103.531 27.3203C103.469 27.4141 103.375 27.5938 103.25 27.8594L103.062 28.1406C103 28.2031 102.938 28.3359 102.875 28.5391C102.812 28.7266 102.719 28.8984 102.594 29.0547C102.484 29.2109 102.43 29.3359 102.43 29.4297C102.43 29.6641 102.734 29.7812 103.344 29.7812C103.375 29.7812 103.492 29.7344 103.695 29.6406L104.023 29.7344C104.055 29.7344 104.133 29.6875 104.258 29.5938C104.383 29.4844 104.57 29.3984 104.82 29.3359C105.086 29.2734 105.312 29.1797 105.5 29.0547C105.703 28.9297 105.938 28.8203 106.203 28.7266C106.484 28.6328 106.75 28.4844 107 28.2812C107.25 28.0625 107.492 27.9062 107.727 27.8125C107.977 27.7188 108.203 27.5781 108.406 27.3906C108.625 27.1875 108.867 27 109.133 26.8281C109.398 26.6562 109.82 26.2812 110.398 25.7031C110.773 25.4062 111.031 25.2422 111.172 25.2109C111.203 25.2109 111.336 25.0078 111.57 24.6016C111.82 24.1797 112.102 23.9688 112.414 23.9688C112.742 23.9688 112.906 24.125 112.906 24.4375C112.906 24.6094 112.828 24.7734 112.672 24.9297V25.0703L112.719 25.4453C112.75 25.4922 112.766 25.5625 112.766 25.6562C112.766 25.7188 112.703 25.8125 112.578 25.9375C112.469 26.0625 112.391 26.2266 112.344 26.4297C112.297 26.6172 112.148 26.7422 111.898 26.8047C111.805 27.1484 111.68 27.3438 111.523 27.3906C111.383 27.4375 111.18 27.5938 110.914 27.8594C110.648 28.125 110.273 28.4375 109.789 28.7969C109.305 29.1562 108.969 29.4375 108.781 29.6406C108.609 29.8281 108.492 29.9219 108.43 29.9219C108.398 29.9219 108.336 29.8906 108.242 29.8281C108.148 29.7656 108.086 29.7344 108.055 29.7344C107.961 29.7344 107.898 29.8438 107.867 30.0625L107.773 30.2969C107.57 30.4219 107.453 30.4844 107.422 30.4844L107.281 30.4375H107.188C107 30.4375 106.906 30.5078 106.906 30.6484L107.047 30.8828V30.9297C107.047 31.1484 106.922 31.2578 106.672 31.2578C106.5 31.2578 106 31.5469 105.172 32.125L104.492 32.2656L103.93 32.5703C103.742 32.4609 103.625 32.4062 103.578 32.4062L103.203 32.5234L102.523 32.5703C102.508 32.5703 102.219 32.4141 101.656 32.1016C101.109 31.7891 100.781 31.4766 100.672 31.1641C100.562 30.8516 100.422 30.5391 100.25 30.2266C100.078 29.8984 99.9922 29.6719 99.9922 29.5469C99.9922 28.7969 100.055 28.2656 100.18 27.9531C100.305 27.625 100.383 27.3828 100.414 27.2266C100.445 27.0703 100.531 26.9062 100.672 26.7344C100.828 26.5469 100.953 26.25 101.047 25.8438C101.5 24.9375 101.812 24.3828 101.984 24.1797C102.156 23.9766 102.289 23.7266 102.383 23.4297L102.688 23.0078C102.719 22.9766 102.766 22.8594 102.828 22.6562C102.891 22.4375 102.969 22.3125 103.062 22.2812C103.188 22.0625 103.25 21.9219 103.25 21.8594C103.25 21.4062 103.047 21.1797 102.641 21.1797C102.562 21.1797 102.477 21.2656 102.383 21.4375C102.289 21.5938 102.07 21.75 101.727 21.9062C101.398 22.0625 101.195 22.1797 101.117 22.2578C101.039 22.3359 100.867 22.4375 100.602 22.5625C100.352 22.6719 100.133 22.8516 99.9453 23.1016L99.5469 23.2891C99.4219 23.5859 99.3125 23.75 99.2188 23.7812C99.125 23.8125 98.8359 23.8906 98.3516 24.0156C98.3203 24.0312 98.2422 24.125 98.1172 24.2969C97.9922 24.4688 97.8125 24.5547 97.5781 24.5547C97.3906 24.7422 97.2031 24.9609 97.0156 25.2109C96.9531 25.2109 96.7891 25.2734 96.5234 25.3984L96.0547 25.5156C95.9297 25.6094 95.7891 25.7578 95.6328 25.9609C95.4922 26.1641 95.2188 26.2656 94.8125 26.2656C94.5781 26.2656 94.4609 26.0781 94.4609 25.7031C94.4609 24.9375 94.7266 24.3281 95.2578 23.875C95.8047 23.4219 96.2031 23.1797 96.4531 23.1484C96.7031 23.1172 96.8594 23.0234 96.9219 22.8672C96.9844 22.7109 97.1328 22.5859 97.3672 22.4922C97.6172 22.3828 97.8984 22.1562 98.2109 21.8125C98.5391 21.4531 98.8906 21.2109 99.2656 21.0859L99.5469 20.7578ZM122.375 12.2969L122.234 11.3828V11.2422C122.234 10.5078 122.484 10.1016 122.984 10.0234C123.094 10.0078 123.422 9.90625 123.969 9.71875C124.25 9.78125 124.539 10.0312 124.836 10.4688C125.148 10.8906 125.305 11.2656 125.305 11.5938C125.305 11.625 125.281 11.6953 125.234 11.8047C125.188 11.9141 125.156 12.125 125.141 12.4375C125.125 12.7344 124.969 13 124.672 13.2344C124.391 13.4531 124.086 13.5625 123.758 13.5625C123.539 13.5625 123.258 13.4141 122.914 13.1172C122.586 12.8047 122.406 12.5312 122.375 12.2969ZM112.25 24.0156L112.625 23.6875H112.766C112.875 23.6875 113.039 23.5703 113.258 23.3359L113.492 23.2422C113.805 22.7734 114.078 22.5 114.312 22.4219L114.688 22.1406C114.75 22.0781 114.836 22.0234 114.945 21.9766C115.07 21.9297 115.258 21.7812 115.508 21.5312C115.773 21.2656 115.984 21.1328 116.141 21.1328C116.297 21.1328 116.422 21.1484 116.516 21.1797C116.609 20.9922 116.797 20.8125 117.078 20.6406C117.359 20.4531 117.586 20.2344 117.758 19.9844L118.062 19.8438C118.312 19.7188 118.531 19.5625 118.719 19.375C118.922 19.1719 119.18 19.0703 119.492 19.0703C119.945 19.0703 120.414 19.3047 120.898 19.7734C121.398 20.2266 121.648 20.6641 121.648 21.0859L121.25 22.9141C120.984 24.2578 120.688 24.9609 120.359 25.0234L120.266 25.5156C120.047 25.6719 119.938 25.7969 119.938 25.8906L120.078 26.4531C120.078 26.5312 119.992 26.6484 119.82 26.8047C119.789 26.8047 119.773 26.8516 119.773 26.9453V27.9062C119.773 28.0781 119.664 28.2188 119.445 28.3281C119.477 28.3594 119.523 28.3906 119.586 28.4219C119.68 28.3281 119.891 28.2812 120.219 28.2812L120.594 28.3281L121.109 27.8125C121.219 27.7812 121.367 27.7109 121.555 27.6016C121.758 27.4766 122.094 27.3203 122.562 27.1328L125.633 24.7891C126.055 24.3672 126.375 24.1562 126.594 24.1562C126.828 24.1562 126.945 24.3047 126.945 24.6016C126.945 24.9453 126.875 25.2344 126.734 25.4688C126.609 25.6875 126.492 25.9609 126.383 26.2891C126.273 26.6016 126.141 26.8203 125.984 26.9453C125.844 27.0703 125.727 27.2109 125.633 27.3672C125.539 27.5078 125.281 27.7188 124.859 28C124.453 28.2812 124.102 28.5703 123.805 28.8672C123.523 29.1484 123.289 29.3516 123.102 29.4766L122.094 30.2031L121.953 30.4375C121.922 30.4688 121.773 30.5391 121.508 30.6484C121.258 30.7422 121.031 30.8672 120.828 31.0234L120.406 31.2578C120.312 31.3203 120.156 31.3594 119.938 31.375C119.734 31.3906 119.555 31.4844 119.398 31.6562C119.242 31.8125 119.117 31.8906 119.023 31.8906L118.672 31.8438L118.203 31.9844C117.938 31.9844 117.609 31.8281 117.219 31.5156C116.844 31.1875 116.656 30.8438 116.656 30.4844V30.3438L116.703 30.0156C116.703 29.9531 116.656 29.7969 116.562 29.5469C116.469 29.2812 116.422 29.1328 116.422 29.1016L116.469 28.7734L116.422 28.6328C116.422 28.2109 116.453 27.9453 116.516 27.8359C116.578 27.7266 116.625 27.5781 116.656 27.3906C116.688 27.1875 116.719 27.0234 116.75 26.8984L116.867 26.3125C116.93 26.125 117.008 26 117.102 25.9375C117.133 25.8125 117.195 25.6016 117.289 25.3047L117.383 24.8828L117.617 24.5547C117.742 24.4297 117.812 24.2656 117.828 24.0625C117.859 23.8438 117.945 23.6172 118.086 23.3828C118.227 23.1484 118.297 23.0078 118.297 22.9609C118.297 22.7734 118.203 22.6797 118.016 22.6797C117.953 22.6797 117.758 22.8047 117.43 23.0547L117.008 22.9141C116.977 22.9141 116.891 22.9922 116.75 23.1484C116.75 23.2109 116.68 23.2578 116.539 23.2891C116.398 23.3203 116.266 23.4375 116.141 23.6406L115.953 23.6875L115.648 23.5469H115.555C115.398 23.5469 115.305 23.7188 115.273 24.0625C115.102 24.3125 114.875 24.4766 114.594 24.5547L114.078 24.6953C113.906 24.7578 113.781 24.8984 113.703 25.1172C113.625 25.3359 113.469 25.5391 113.234 25.7266C113 25.8984 112.844 25.9844 112.766 25.9844C112.328 25.9844 112.109 25.7422 112.109 25.2578L112.297 24.1562L112.25 24.0156ZM129.219 30.7891L129.477 30.4375C129.57 30.3125 129.617 30.1719 129.617 30.0156L130.18 28.3516C130.383 27.7578 130.5 27.4297 130.531 27.3672L130.625 26.8984L130.906 26.3594L131 25.75C131.062 25.2969 131.289 24.625 131.68 23.7344L131.727 23.3828L131.914 22.8672V22.7734C131.914 22.6172 131.867 22.5391 131.773 22.5391H131.586C131.305 22.5391 131.148 22.6016 131.117 22.7266L130.953 23.3828C130.953 23.6172 130.812 23.7344 130.531 23.7344C130.5 23.7344 130.414 23.7109 130.273 23.6641C130.148 23.6172 130.07 23.5938 130.039 23.5938C129.945 23.7812 129.82 24.0156 129.664 24.2969C129.508 24.3594 129.25 24.5234 128.891 24.7891L128.656 24.8359C128.484 25.0859 128.227 25.3438 127.883 25.6094L127.789 25.75C127.57 26.0938 127.266 26.2656 126.875 26.2656C126.359 26.2656 126.102 25.9141 126.102 25.2109C126.102 24.7734 126.312 24.4453 126.734 24.2266C127.156 23.9922 127.43 23.7891 127.555 23.6172C127.68 23.4297 128.016 23.1797 128.562 22.8672L128.797 22.5391C128.922 22.3672 129.031 22.2812 129.125 22.2812L129.523 22.1406C129.586 22.0781 129.727 22.0469 129.945 22.0469L129.898 21.7188C129.898 21.625 130.094 21.5234 130.484 21.4141C130.578 21.3203 130.789 21.1484 131.117 20.8984C131.461 20.6484 132.047 19.9766 132.875 18.8828C132.938 18.7266 133.055 18.6094 133.227 18.5312C133.414 18.4375 133.57 18.3281 133.695 18.2031H134.164C134.289 18.2031 134.57 18.4141 135.008 18.8359C135.445 19.2578 135.664 19.7969 135.664 20.4531L134.984 23.4766L135.031 23.6875L134.984 23.875C134.984 23.9375 135.016 23.9688 135.078 23.9688C135.141 23.9688 135.273 23.8438 135.477 23.5938C135.57 23.2969 135.758 23.0703 136.039 22.9141C136.336 22.7578 136.555 22.5938 136.695 22.4219C136.836 22.2344 137.023 22.0703 137.258 21.9297C137.508 21.7891 137.828 21.5625 138.219 21.25C138.625 20.9219 138.992 20.7422 139.32 20.7109L139.555 20.5703L139.648 20.2188C139.93 20 140.234 19.7969 140.562 19.6094L141.125 19.1641C141.797 18.9453 142.297 18.8359 142.625 18.8359C142.781 18.8359 142.922 18.7734 143.047 18.6484L143.586 18.8828C143.617 18.8828 143.68 18.8359 143.773 18.7422C143.773 18.7109 143.805 18.6953 143.867 18.6953C144.508 18.6953 145.047 18.9453 145.484 19.4453C145.938 19.9453 146.164 20.4922 146.164 21.0859C146.164 21.1172 146.141 21.1875 146.094 21.2969C146.047 21.4062 146.023 21.5 146.023 21.5781L146.164 21.9531V22L145.648 23.3359C145.602 23.4922 145.508 23.9297 145.367 24.6484C145.07 25.1172 144.719 25.5625 144.312 25.9844C143.922 26.4062 143.664 26.7266 143.539 26.9453C143.602 27.0078 143.656 27.0391 143.703 27.0391C143.844 27.0391 144.047 26.8984 144.312 26.6172L145.414 25.9375L145.602 26.0312C145.82 25.875 146.047 25.6953 146.281 25.4922C146.516 25.2891 146.719 25.1797 146.891 25.1641C146.984 25.0391 147.148 24.8828 147.383 24.6953L147.617 24.4375C147.711 24.4375 147.82 24.3828 147.945 24.2734C148.07 24.1641 148.211 24.0938 148.367 24.0625C148.539 24.0312 148.711 23.9141 148.883 23.7109C149.055 23.4922 149.195 23.3672 149.305 23.3359C149.43 23.3047 149.508 23.2422 149.539 23.1484C150.07 22.6172 150.484 22.3281 150.781 22.2812L151.062 22.1875C151.094 22.1562 151.125 22.1406 151.156 22.1406C151.328 22.1406 151.461 22.3047 151.555 22.6328L151.25 23.1016V23.3359L151.32 23.5938C151.32 23.75 151.227 23.9531 151.039 24.2031C150.852 24.4375 150.641 24.5547 150.406 24.5547C150.141 24.6797 149.977 24.8203 149.914 24.9766C149.867 25.1172 149.641 25.3281 149.234 25.6094C148.828 25.8906 148.578 26.1406 148.484 26.3594C148.391 26.5625 148.258 26.6641 148.086 26.6641L147.664 26.5234C147.305 26.9922 147.062 27.2109 146.938 27.1797H146.797L146.703 27.2266L146.422 27.8125C146.25 27.8438 146.117 27.8906 146.023 27.9531L145.789 27.9062C144.836 28.8594 144.227 29.3359 143.961 29.3359L143.539 29.2891C143.508 29.2891 143.43 29.3828 143.305 29.5703C143.195 29.7422 143.102 29.8672 143.023 29.9453C142.945 30.0234 142.844 30.1406 142.719 30.2969H142.227C142.102 30.2969 141.867 30.4297 141.523 30.6953C141.523 30.7266 141.508 30.7422 141.477 30.7422L141.125 30.6016H141.078C140.922 30.6016 140.719 30.7266 140.469 30.9766L139.742 31.2578C139.742 31.2891 139.727 31.3047 139.695 31.3047L139.203 31.2109C139.109 31.2109 138.969 31.2891 138.781 31.4453L138.594 31.5625C138.5 31.5625 138.336 31.6406 138.102 31.7969L137.352 32.0781C137.273 32.0469 137.203 32.0312 137.141 32.0312L136.719 32.0781L136.344 31.9844C136.266 31.9844 136.148 32.0938 135.992 32.3125C135.992 32.3438 135.961 32.3594 135.898 32.3594C135.867 32.3594 135.789 32.3438 135.664 32.3125H135.383L134.844 32.4531C134.719 32.4531 134.492 32.3281 134.164 32.0781C133.852 31.8281 133.648 31.6016 133.555 31.3984L133.32 31.0234C133.102 30.9297 132.953 30.8359 132.875 30.7422L132.688 30.8359C132.672 30.8984 132.602 31 132.477 31.1406C132.367 31.2812 132.312 31.3828 132.312 31.4453C132.312 31.6484 132.234 31.9219 132.078 32.2656C131.938 32.5938 131.727 33.1875 131.445 34.0469L131.141 34.4219C131.078 34.5 131.047 34.5781 131.047 34.6562C131.047 34.7969 130.922 35.0391 130.672 35.3828C130.656 35.7734 130.508 36.1641 130.227 36.5547L130.133 36.7891V37.1172C130.133 37.2109 129.977 37.5938 129.664 38.2656L129.617 38.7578C129.523 38.7734 129.359 39.0781 129.125 39.6719C128.906 40.2812 128.641 40.7891 128.328 41.1953L128.117 41.9688L127.883 42.3906L127.742 42.8359C127.711 42.9141 127.664 42.9766 127.602 43.0234L127.555 43.2578L127.414 43.3516C127.445 43.5859 127.297 43.9766 126.969 44.5234C126.969 44.5859 126.891 44.6953 126.734 44.8516C126.578 45.0078 126.398 45.2344 126.195 45.5312C125.992 45.8438 125.695 46.125 125.305 46.375L124.297 47.0078C123.547 47.0078 123.031 46.6094 122.75 45.8125C122.719 45.7188 122.57 45.4609 122.305 45.0391C122.023 44.6172 121.883 43.9922 121.883 43.1641L122.094 42.2031C122.234 41.3438 122.391 40.8047 122.562 40.5859L122.844 39.9531C122.875 39.8281 122.93 39.7031 123.008 39.5781C123.086 39.4688 123.172 39.2891 123.266 39.0391C123.344 38.8047 123.555 38.5781 123.898 38.3594C124.117 37.8594 124.344 37.4297 124.578 37.0703L124.906 36.4375C124.906 36.25 125.07 36.0469 125.398 35.8281C125.539 35.5312 125.734 35.2266 125.984 34.9141C126.234 34.6172 126.398 34.4375 126.477 34.375C126.555 34.3125 126.625 34.1172 126.688 33.7891C126.75 33.4453 126.883 33.2344 127.086 33.1562C127.305 33.0781 127.43 32.9766 127.461 32.8516L127.695 32.4531C127.852 32.3281 128 32.1328 128.141 31.8672C128.297 31.6016 128.469 31.4297 128.656 31.3516C128.859 30.9766 129.047 30.7891 129.219 30.7891ZM134.984 28.0938L135.805 27.9531C136.242 27.8594 136.484 27.8125 136.531 27.8125C136.562 27.8125 136.633 27.8359 136.742 27.8828C136.852 27.9297 136.969 27.9766 137.094 28.0234C137.234 28.0703 137.383 28.2422 137.539 28.5391C138.305 28.1797 138.766 27.9219 138.922 27.7656C139.078 27.6094 139.211 27.5312 139.32 27.5312C139.352 27.5312 139.398 27.5469 139.461 27.5781C139.492 27.5 139.531 27.4062 139.578 27.2969C139.625 27.1875 139.734 27.0625 139.906 26.9219C140.094 26.7656 140.375 26.4219 140.75 25.8906L141.523 25.0234L142.344 23.8281C142.547 23.5156 142.719 23.1484 142.859 22.7266L143 22.4219C143.062 22.2344 143.094 22.125 143.094 22.0938C143.094 21.9844 142.984 21.7266 142.766 21.3203L142.18 21.5781V21.5312C141.992 21.3906 141.836 21.3203 141.711 21.3203C141.617 21.3203 141.531 21.3828 141.453 21.5078C141.375 21.6172 141.258 21.6875 141.102 21.7188C140.961 21.75 140.836 21.8203 140.727 21.9297C140.617 22.0391 140.469 22.1016 140.281 22.1172C140.109 22.1328 139.914 22.25 139.695 22.4688L139.414 22.4219L139.25 22.5391L138.969 22.4688C138.641 22.8438 138.406 23.0781 138.266 23.1719C138.141 23.25 137.961 23.4531 137.727 23.7812H137.398C137.273 23.7812 137.156 23.9531 137.047 24.2969C136.891 24.3906 136.734 24.5391 136.578 24.7422L135.992 24.9766C135.867 25.1797 135.727 25.3359 135.57 25.4453L134.656 26.6172C134.594 26.6797 134.523 26.7188 134.445 26.7344C134.367 26.75 134.289 26.7734 134.211 26.8047L134.328 27.2734H134.258C133.883 27.4766 133.648 27.8359 133.555 28.3516L133.414 28.9141C133.414 29.0078 133.445 29.0547 133.508 29.0547C133.57 29.0547 133.656 29 133.766 28.8906C133.875 28.7812 134.07 28.625 134.352 28.4219C134.633 28.2188 134.844 28.1094 134.984 28.0938ZM123.711 43.75C123.789 43.7031 124.188 43.0938 124.906 41.9219L125.141 41.4766C125.281 41.2266 125.414 41.0234 125.539 40.8672L125.586 40.6797C125.664 40.6016 125.742 40.4844 125.82 40.3281L127.109 36.9297C127.297 36.4297 127.414 36.0703 127.461 35.8516C127.523 35.6484 127.742 35 128.117 33.9062C128.023 33.9375 127.93 34.0469 127.836 34.2344C127.742 34.4375 127.664 34.5391 127.602 34.5391L127.25 34.5859C127.219 34.5859 127.094 34.8672 126.875 35.4297L126.781 35.5469C126.547 35.5781 126.391 35.7031 126.312 35.9219L125.914 36.7422V37.0703C125.914 37.4453 125.641 37.7969 125.094 38.125C124.922 38.5781 124.812 38.8047 124.766 38.8047H124.531L124.625 39.2266C124.625 39.5859 124.523 39.8906 124.32 40.1406C124.102 40.4062 123.992 40.5547 123.992 40.5859L124.039 41.0547L123.992 41.4766C123.805 41.9297 123.711 42.4766 123.711 43.1172V43.75ZM152.094 20.9453L152.422 20.3594C152.516 20.2188 152.633 20.0781 152.773 19.9375C152.93 19.7812 153.094 19.3984 153.266 18.7891C153.438 18.1641 153.625 17.7344 153.828 17.5C154.047 17.2656 154.359 17.1484 154.766 17.1484C155 17.1484 155.305 17.2656 155.68 17.5C156.07 17.7188 156.445 18.3984 156.805 19.5391C157.18 20.6797 157.367 21.4844 157.367 21.9531C157.367 22.1406 157.422 22.3828 157.531 22.6797C157.641 22.9609 157.711 23.1797 157.742 23.3359C157.617 23.6016 157.555 23.75 157.555 23.7812L157.602 24.7422L157.32 25.5156V26.0781C157.133 26.3906 157.039 26.5859 157.039 26.6641C157.039 26.7578 157.07 26.8516 157.133 26.9453C157.867 26.6328 158.312 26.3828 158.469 26.1953C158.625 25.9922 158.773 25.8672 158.914 25.8203C159.07 25.7734 159.32 25.5703 159.664 25.2109L160.109 24.9766C160.266 24.7891 160.398 24.625 160.508 24.4844C160.617 24.3281 160.742 24.2188 160.883 24.1562C161.039 24.0938 161.219 23.9844 161.422 23.8281C161.625 23.6719 161.922 23.4922 162.312 23.2891L162.547 23.0078C162.781 22.7422 163.055 22.5312 163.367 22.375C163.695 22.2188 163.875 22.1406 163.906 22.1406C164.016 22.1406 164.125 22.2891 164.234 22.5859C164.359 22.8672 164.422 23.1484 164.422 23.4297C164.422 23.6953 164.266 23.9609 163.953 24.2266C163.656 24.4766 163.453 24.6641 163.344 24.7891C163.234 24.9141 162.984 25.0234 162.594 25.1172C162.562 25.1328 162.305 25.4531 161.82 26.0781L161.352 26.3594L161.117 26.6641C161.086 26.7266 160.875 26.7891 160.484 26.8516C160.469 26.8516 160.43 26.9297 160.367 27.0859C160.32 27.2422 160.156 27.3516 159.875 27.4141C159.312 27.9297 159.023 28.2188 159.008 28.2812L158.516 28.375C158.422 28.6719 158.344 28.8516 158.281 28.9141C157.906 29.0078 157.695 29.1641 157.648 29.3828C157.602 29.4141 157.523 29.4453 157.414 29.4766L157.32 29.5469C156.961 29.8281 156.609 30 156.266 30.0625L155.727 30.2031L155.539 30.4844C155.539 30.5625 155.344 30.6641 154.953 30.7891C154.578 30.9141 154.297 31.0703 154.109 31.2578L153.711 31.5625C153.227 31.75 152.922 31.9219 152.797 32.0781H152.469C152.25 32.0781 151.906 32.2422 151.438 32.5703C150.969 32.8828 150.594 33.0391 150.312 33.0391C149.406 33.0391 148.781 32.9297 148.438 32.7109C148.109 32.4766 147.836 32.1953 147.617 31.8672C147.398 31.5234 147.203 31.25 147.031 31.0469C146.844 30.8438 146.75 30.6797 146.75 30.5547C146.75 30.4453 146.828 30.3359 146.984 30.2266C147.125 30.1172 147.281 29.8984 147.453 29.5703C147.625 29.2266 148.062 29.0078 148.766 28.9141C148.797 28.9141 148.906 28.8672 149.094 28.7734C149.297 28.6797 149.461 28.6328 149.586 28.6328C149.742 28.6328 149.938 28.7734 150.172 29.0547C150.172 29.0859 150.203 29.1016 150.266 29.1016L150.641 29.0547C150.812 29.1797 150.93 29.2422 150.992 29.2422C151.367 29.2422 151.766 29.0547 152.188 28.6797L152.281 28.6328H152.469C152.516 28.6328 152.594 28.5 152.703 28.2344L153.102 27.4141L153.922 26.3594V26.125C153.922 26.0781 153.969 25.9375 154.062 25.7031V25.3516C154.062 25.2109 154.156 25.125 154.344 25.0938C154.531 25.0469 154.625 24.9453 154.625 24.7891L154.578 24.6016C154.453 24.4297 154.391 24.2969 154.391 24.2031L154.625 23.7344L154.578 23.2422L154.672 23.0547C154.609 22.8359 154.578 22.7109 154.578 22.6797L154.672 22.0938C154.672 22.0781 154.625 21.9297 154.531 21.6484C154.453 21.3672 154.391 21.2266 154.344 21.2266C154.25 21.2266 153.953 21.4688 153.453 21.9531C152.953 22.4375 152.656 22.7812 152.562 22.9844C152.469 23.1875 152.266 23.375 151.953 23.5469C151.656 23.7031 151.453 23.8828 151.344 24.0859C151.234 24.2891 151.102 24.4062 150.945 24.4375L149.375 25.7031L147.664 26.9688C147.539 27.1094 147.461 27.1797 147.43 27.1797C146.852 27.1797 146.562 26.8594 146.562 26.2188C146.562 26.0156 146.68 25.6484 146.914 25.1172C147.023 25.0547 147.109 25.0078 147.172 24.9766C147.219 24.9453 147.242 24.9219 147.242 24.9062C147.242 24.8906 147.227 24.8828 147.195 24.8828L147.336 24.9766H147.383C147.961 24.5859 148.336 24.3594 148.508 24.2969C148.68 24.2344 148.836 24.0625 148.977 23.7812L149.961 23.0781C150.211 22.8906 150.594 22.5469 151.109 22.0469C151.625 21.5469 151.953 21.1797 152.094 20.9453Z" fill="black"/>
</svg>
